<?xml version="1.0" standalone="no"?>
<!DOCTYPE svg PUBLIC "-//W3C//DTD SVG 20010904//EN"
 "http://www.w3.org/TR/2001/REC-SVG-20010904/DTD/svg10.dtd">
<svg version="1.0" xmlns="http://www.w3.org/2000/svg"
 width="700.000000pt" height="700.000000pt" viewBox="0 0 700.000000 700.000000"
 preserveAspectRatio="xMidYMid meet">
<metadata>
Created by potrace 1.14, written by Peter Selinger 2001-2017
</metadata>
<g transform="translate(0.000000,700.000000) scale(0.100000,-0.100000)"
fill="#000000" stroke="none">
<path d="M4937 6714 c-1 -1 -51 -5 -112 -8 -126 -7 -185 -13 -300 -31 -16 -3
-46 -7 -66 -9 -20 -3 -42 -7 -50 -10 -8 -3 -32 -7 -54 -10 -72 -9 -177 -35
-320 -80 -77 -24 -205 -59 -285 -76 -182 -41 -312 -86 -465 -161 -285 -139
-441 -279 -462 -411 -17 -111 31 -173 177 -229 137 -53 185 -68 270 -83 19 -3
44 -8 55 -10 11 -2 49 -7 85 -11 36 -3 72 -8 80 -10 14 -3 125 -12 260 -21 30
-2 186 -6 345 -9 160 -4 295 -8 301 -10 6 -2 12 -15 12 -29 0 -46 34 -164 53
-185 25 -27 31 -26 81 5 73 47 102 55 126 38 27 -19 37 -87 22 -145 -7 -24
-29 -70 -51 -101 l-39 -57 77 35 c153 69 193 115 208 239 3 28 20 89 37 138
29 77 35 87 58 88 14 0 34 2 45 3 11 2 56 6 100 10 44 5 87 9 95 11 8 1 42 6
75 9 33 4 71 9 85 11 14 2 59 8 101 14 143 19 509 121 747 207 254 92 368 166
416 269 83 174 -42 288 -474 437 -156 53 -474 126 -625 143 -33 3 -73 8 -90
11 -64 9 -114 13 -214 20 -96 6 -300 12 -304 8z m923 -169 c313 -41 511 -105
653 -210 152 -113 99 -230 -148 -328 -108 -43 -472 -154 -680 -207 -149 -38
-175 -43 -270 -55 -27 -4 -57 -8 -65 -10 -8 -2 -42 -7 -75 -11 -33 -3 -68 -8
-77 -9 -9 -2 -48 -7 -85 -10 -37 -4 -76 -9 -86 -12 -15 -4 -18 -1 -13 14 15
50 36 139 36 155 0 10 2 18 4 18 3 0 36 7 75 15 39 8 85 17 103 20 183 32 480
124 623 194 175 86 239 182 189 286 -23 49 -66 79 -171 122 -86 35 -119 51
-78 40 11 -3 40 -9 65 -12z m-80 -29 c118 -26 186 -74 196 -138 8 -47 -28 -88
-110 -127 -116 -55 -552 -183 -696 -205 -19 -3 -59 -10 -88 -17 l-54 -11 -39
39 c-22 22 -57 48 -79 58 l-40 18 77 27 c198 68 302 155 286 239 -6 34 -17 46
-61 67 -62 29 -234 25 -299 -8 -57 -29 1 -45 83 -24 32 8 92 18 132 22 60 5
76 4 91 -10 35 -32 4 -76 -84 -119 -65 -32 -317 -120 -421 -147 -91 -23 -91
-23 -194 -40 -41 -6 -86 -14 -100 -16 -30 -5 -200 -5 -255 0 -45 5 -85 42 -85
80 0 46 86 101 235 149 161 53 337 96 455 111 19 3 60 10 90 16 76 15 95 17
175 25 39 4 84 9 100 11 17 2 73 6 125 10 52 3 96 7 98 9 2 2 90 2 195 0 135
-1 214 -7 267 -19z m-1756 -176 c-55 -58 -62 -140 -16 -186 24 -24 106 -60
181 -80 70 -17 241 -25 315 -14 25 4 46 6 46 5 0 -2 -17 -20 -37 -41 -21 -22
-47 -52 -58 -68 l-20 -28 -250 -2 c-402 -2 -526 22 -573 110 -43 81 -5 159
118 243 57 39 125 61 235 77 22 4 42 8 44 10 2 2 13 4 24 4 16 0 15 -4 -9 -30z
m-499 -143 c-27 -90 7 -174 88 -219 108 -61 307 -116 482 -134 39 -4 81 -8 95
-9 14 -2 68 -3 121 -4 l95 -1 -4 -82 c-2 -46 -6 -85 -9 -88 -14 -14 -892 -3
-1093 14 -19 2 -75 6 -125 10 -158 13 -240 48 -263 114 -21 60 32 146 134 219
62 45 261 146 354 180 101 38 135 50 137 48 1 0 -4 -22 -12 -48z"/>
<path d="M4900 4931 c-55 -17 -110 -53 -154 -98 -25 -26 -46 -51 -46 -55 0 -5
-24 16 -54 47 -33 33 -78 66 -112 82 -105 48 -221 18 -284 -74 -12 -18 -27
-29 -35 -27 -25 10 -52 -15 -63 -58 -12 -45 -18 -113 -27 -288 -3 -58 -7 -142
-10 -187 -5 -107 -17 -516 -19 -665 l-1 -117 -33 -24 -32 -24 24 -17 c14 -9
29 -16 35 -16 5 0 9 -47 10 -104 1 -57 3 -113 5 -123 3 -15 -5 -22 -42 -32
-114 -33 -231 -94 -296 -154 -36 -34 -59 -87 -59 -136 0 -38 4 -49 32 -72 32
-26 32 -27 9 -32 -89 -23 -215 -127 -254 -210 -51 -110 -13 -230 90 -284 17
-9 9 -15 -54 -47 -257 -129 -368 -289 -321 -462 6 -22 29 -60 51 -84 l39 -43
-34 -40 c-44 -51 -59 -104 -50 -176 24 -194 218 -352 587 -480 113 -39 241
-76 288 -85 14 -2 59 -11 100 -19 41 -8 102 -18 135 -22 33 -3 78 -8 100 -10
22 -3 73 -7 114 -10 41 -3 76 -7 78 -9 5 -5 10 -35 18 -98 3 -29 8 -64 10 -78
2 -14 6 -45 9 -70 3 -25 10 -79 16 -120 16 -114 28 -206 35 -270 2 -25 7 -66
11 -92 l6 -48 94 0 c68 0 94 3 95 13 2 20 6 49 12 97 4 25 9 79 12 120 4 41 9
86 11 100 9 51 13 386 5 427 l-8 41 111 17 c125 18 313 64 396 95 30 12 68 26
83 32 47 17 158 78 227 124 218 144 373 310 439 469 20 49 25 77 25 150 0 104
-16 146 -89 224 l-43 46 34 70 c69 142 80 281 31 387 -30 66 -67 104 -146 153
-33 21 -61 41 -61 44 0 3 6 29 14 57 16 61 12 134 -11 181 -26 56 -119 123
-225 162 l-26 10 21 43 c27 52 28 134 4 171 -31 47 -89 82 -198 118 l-108 35
32 19 c39 23 72 60 88 99 21 50 -3 76 -96 108 -44 14 -90 27 -102 27 -13 1
-23 4 -23 9 0 9 2 11 136 119 106 85 134 118 134 155 0 21 -68 255 -96 328 -7
19 -47 134 -90 255 -77 222 -109 285 -145 285 -19 0 -25 5 -83 69 -45 50 -110
78 -186 79 -36 0 -76 -3 -90 -7z m369 -560 c69 -87 135 -271 140 -389 4 -98
-10 -126 -113 -225 l-91 -87 -210 -1 c-115 -1 -259 -8 -320 -16 -112 -15 -334
-66 -438 -102 -53 -19 -58 -19 -53 -3 2 9 7 62 11 117 3 55 8 116 10 135 6 60
17 174 20 200 13 123 41 254 60 283 11 15 16 11 49 -38 20 -30 43 -63 51 -73
7 -9 44 -55 82 -102 70 -88 97 -119 198 -227 69 -74 72 -74 157 -4 67 56 140
143 212 250 56 85 149 264 161 314 6 22 10 25 25 17 10 -5 32 -27 49 -49z
m206 -847 c-67 -51 -246 -106 -314 -97 -23 3 -41 8 -41 10 0 12 65 93 74 94 6
0 20 2 31 4 11 2 69 7 130 11 60 3 112 8 114 10 3 3 9 -1 15 -7 8 -7 5 -15 -9
-25z m-365 -2 c0 -4 -10 -25 -23 -47 -22 -38 -24 -39 -67 -35 -71 6 -418 4
-495 -4 -99 -9 -216 -34 -291 -61 l-64 -23 4 26 c2 15 5 30 5 33 1 4 22 10 49
13 26 4 54 9 62 11 73 16 172 36 205 41 22 3 42 7 45 9 3 2 46 6 95 10 50 3
104 8 120 10 17 2 89 6 160 10 72 4 131 8 133 10 6 5 62 3 62 -3z m395 -218
c143 -15 202 -121 115 -208 l-30 -30 -84 27 c-47 16 -93 30 -103 31 -10 2 -38
9 -63 16 -25 7 -56 14 -70 16 -14 3 -32 7 -40 9 -8 2 -35 7 -60 10 -25 3 -54
8 -65 10 -11 2 -28 4 -37 4 -14 1 -18 10 -18 39 0 20 5 44 10 52 5 8 10 12 10
9 0 -4 35 1 78 11 77 19 206 20 357 4z m-501 -70 l1 -36 -70 7 c-304 28 -482
26 -685 -10 -8 -1 -32 -5 -52 -9 -37 -7 -37 -7 -35 26 l2 33 55 -11 c30 -6 80
-9 110 -8 69 3 241 14 300 19 77 6 192 15 275 20 43 3 81 8 84 10 9 9 14 -5
15 -41z m13 -146 c6 -1 14 -15 19 -32 l7 -31 6 31 c4 22 11 30 23 29 9 -2 60
-6 113 -10 53 -3 104 -8 113 -10 9 -1 40 -6 67 -9 28 -3 68 -9 90 -13 22 -4
43 -7 48 -7 4 -1 7 -5 8 -11 1 -12 -129 -58 -274 -95 -190 -49 -180 -48 -367
-34 -192 14 -641 7 -670 -11 -3 -2 -33 -7 -65 -10 -33 -4 -113 -22 -178 -41
-135 -39 -162 -41 -176 -16 -12 22 15 55 83 101 55 38 177 96 223 106 30 6 32
5 39 -30 8 -43 21 -35 26 14 3 37 15 43 98 56 20 3 47 8 60 10 14 3 66 8 115
11 50 4 92 8 93 9 3 3 467 -4 499 -7z m779 -176 c44 -38 64 -74 66 -113 1 -35
-37 -129 -53 -129 -5 0 -39 12 -76 26 -129 49 -322 112 -327 106 -3 -3 -6 -3
-6 1 0 3 27 19 60 36 78 40 126 71 175 114 l40 35 45 -25 c26 -14 60 -37 76
-51z m-415 -182 c139 -25 342 -76 377 -94 l26 -14 -44 -42 c-63 -59 -146 -112
-237 -150 -43 -18 -87 -36 -98 -41 -76 -31 -193 -60 -225 -54 -19 4 -46 9 -59
12 -36 6 -37 7 -56 85 -23 96 -59 172 -107 224 l-38 42 62 6 c35 4 99 15 143
25 106 24 122 24 256 1z m-1106 -47 c151 -7 405 -8 471 -1 l41 5 -28 -46 c-16
-25 -39 -76 -51 -113 -17 -51 -26 -68 -40 -68 -11 0 -37 -9 -59 -21 -34 -17
-64 -21 -187 -24 -81 -2 -163 -6 -182 -9 -19 -3 -60 -8 -90 -11 -30 -3 -64 -7
-75 -9 -11 -3 -53 -12 -93 -20 -91 -20 -246 -63 -289 -81 -30 -13 -35 -12 -61
10 -15 13 -36 39 -47 58 -16 30 -17 41 -7 74 21 69 112 145 224 187 71 27 202
71 233 79 11 3 38 3 60 1 22 -2 103 -7 180 -11z m1707 -191 c86 -95 82 -230
-10 -369 -19 -29 -37 -53 -39 -53 -2 0 -49 22 -106 49 -56 27 -142 64 -191 82
-73 27 -85 35 -71 44 152 89 288 202 331 274 21 35 33 31 86 -27z m-1546 -241
c-15 -28 -34 -51 -46 -54 -33 -9 -435 -6 -449 3 -9 5 20 15 75 28 137 31 241
48 354 58 41 3 77 8 79 10 13 12 9 -1 -13 -45z m1134 -72 c76 -21 173 -66 269
-127 l54 -34 -30 -26 c-116 -107 -163 -140 -303 -213 -147 -78 -489 -219 -530
-219 -5 0 -4 15 1 33 16 57 50 240 56 307 3 36 7 72 8 80 2 8 4 38 4 65 l1 51
99 22 c54 12 136 36 182 51 46 16 91 30 99 30 9 1 49 -8 90 -20z m-1525 -74
c66 -13 152 -27 190 -31 39 -4 77 -8 85 -10 8 -1 23 -3 32 -3 15 -1 17 -11 14
-87 -3 -96 18 -211 83 -446 l18 -66 -24 -5 c-34 -6 -447 -1 -508 7 -27 3 -66
8 -85 11 -19 3 -53 8 -75 11 -90 12 -208 45 -266 74 -33 17 -58 34 -55 38 4 3
25 8 49 12 l42 6 -65 33 c-55 29 -69 32 -92 23 -25 -9 -30 -7 -48 16 -64 80
-24 194 102 295 63 50 223 133 318 165 54 19 56 19 110 0 30 -10 109 -30 175
-43z m2036 -278 c51 -98 6 -230 -123 -367 -55 -59 -195 -175 -276 -229 -154
-103 -406 -205 -624 -250 -142 -30 -131 -37 -124 72 3 50 13 130 22 177 8 46
16 92 17 102 1 10 6 18 12 19 87 6 427 103 540 154 267 121 363 186 480 329
20 25 41 43 46 40 5 -3 19 -24 30 -47z m-2491 -335 c181 -71 256 -93 440 -126
151 -27 207 -33 365 -42 60 -3 111 -6 112 -8 5 -4 82 -323 88 -362 l6 -41
-158 2 c-158 3 -336 12 -383 20 -14 2 -50 7 -80 10 -110 14 -259 53 -321 85
-216 109 -346 249 -365 392 -8 55 17 104 69 137 27 17 35 18 52 7 11 -7 90
-40 175 -74z"/>
<path d="M343 4614 c-77 -27 -121 -84 -131 -170 -4 -41 -7 -44 -33 -44 -29 0
-29 0 -29 -65 l0 -65 30 0 30 0 0 -168 0 -169 88 1 87 1 3 169 2 168 40 -4
c31 -3 40 0 41 12 0 8 2 39 3 68 l1 52 -42 0 c-27 0 -43 5 -44 13 -5 46 19 72
68 72 l37 0 -3 65 c-1 36 -4 67 -6 68 -10 10 -109 7 -142 -4z"/>
<path d="M1569 4596 c-1 -28 -1 -592 0 -632 l1 -31 88 1 87 1 2 150 c3 139 4
151 24 168 28 23 65 22 87 -3 21 -25 19 -12 21 -178 l1 -137 88 0 87 0 0 175
c0 152 -3 180 -19 213 -44 89 -171 117 -256 57 -28 -20 -30 -20 -31 -3 0 10
-1 67 -2 128 l-2 109 -87 1 c-82 1 -88 0 -89 -19z"/>
<path d="M2233 4613 c-27 -5 -63 -48 -63 -75 0 -50 39 -87 92 -88 53 0 90 34
90 83 0 38 -29 77 -58 77 -7 0 -18 2 -26 4 -7 2 -23 1 -35 -1z"/>
<path d="M662 4403 c-91 -18 -105 -28 -96 -66 17 -78 15 -77 86 -57 66 18 122
18 145 -1 22 -19 15 -25 -34 -27 -111 -6 -209 -56 -231 -120 -11 -34 -9 -101
6 -128 14 -25 51 -58 82 -70 40 -17 125 -9 165 15 43 25 45 25 45 7 0 -19 14
-22 93 -22 l69 1 -1 157 c-2 159 -9 201 -42 249 -43 61 -163 87 -287 62z m153
-282 c-1 -38 -17 -60 -52 -70 -25 -7 -35 -6 -47 8 -32 35 -13 68 47 80 49 11
53 10 52 -18z"/>
<path d="M1207 4396 c-76 -28 -123 -93 -114 -159 8 -62 62 -107 164 -137 62
-19 65 -45 6 -54 -18 -3 -103 15 -134 28 -13 6 -19 0 -27 -26 -26 -85 -26 -87
15 -105 26 -11 68 -16 133 -16 107 0 147 13 195 62 26 28 29 39 30 91 0 53 -3
62 -33 93 -21 22 -52 40 -80 48 -26 6 -60 18 -75 26 -24 12 -26 17 -16 30 13
15 31 15 134 1 22 -3 23 -2 41 60 l13 42 -32 14 c-44 18 -173 19 -220 2z"/>
<path d="M2213 4402 l-42 -3 2 -232 2 -232 88 -1 c73 -1 87 2 88 15 4 74 1
443 -4 447 -7 7 -76 10 -134 6z"/>
<path d="M2620 4401 c-139 -43 -210 -174 -168 -312 41 -140 239 -207 391 -135
193 92 180 370 -20 442 -41 14 -162 17 -203 5z m131 -126 c26 -16 40 -52 41
-105 0 -60 -19 -102 -53 -114 -65 -23 -111 26 -111 116 1 89 61 139 123 103z"/>
<path d="M3105 4400 l-40 -5 2 -55 c0 -30 2 -134 2 -231 l1 -176 88 1 87 1 5
152 c5 137 7 154 25 167 22 17 30 18 61 10 36 -9 44 -46 44 -193 l0 -138 88 1
87 1 0 175 c0 158 -2 179 -21 215 -32 61 -83 87 -165 83 -56 -3 -71 -8 -106
-36 -22 -17 -41 -26 -40 -19 1 48 -25 59 -118 47z"/>
<path d="M655 3753 c-70 -37 -101 -86 -96 -156 4 -70 48 -113 173 -170 88 -40
118 -76 118 -142 -1 -48 -15 -75 -55 -107 -25 -19 -41 -23 -100 -23 -48 0 -81
6 -104 19 -28 15 -35 15 -42 4 -14 -22 -11 -26 39 -45 86 -33 208 -19 257 31
64 63 67 176 8 238 -15 17 -70 50 -120 74 -51 25 -100 55 -108 68 -37 56 -18
144 37 172 36 19 119 20 160 3 25 -10 31 -10 39 2 14 22 11 25 -30 37 -54 17
-140 14 -176 -5z"/>
<path d="M2161 3754 c-64 -24 -134 -97 -161 -169 -30 -80 -32 -206 -4 -285 27
-79 102 -153 173 -174 68 -20 104 -20 167 -1 133 40 215 186 200 359 -15 171
-111 276 -260 282 -48 3 -85 -2 -115 -12z m181 -38 c149 -63 197 -331 85 -477
-105 -138 -296 -113 -375 50 -23 49 -27 68 -27 151 1 78 5 105 24 148 25 56
96 128 134 135 50 10 127 6 159 -7z"/>
<path d="M2895 3760 l-40 -5 -3 -318 -2 -318 22 3 c23 3 23 6 23 133 l0 130
67 2 c75 1 129 16 170 45 116 81 87 283 -46 319 -47 13 -134 17 -191 9z m194
-55 c100 -51 93 -207 -12 -258 -36 -18 -160 -28 -174 -14 -3 4 -6 68 -7 143
-1 128 0 137 19 144 32 12 139 3 174 -15z"/>
<path d="M1219 3743 c0 -10 -1 -153 -1 -318 0 -298 0 -300 21 -303 24 -4 23
-11 23 206 l0 112 176 -2 177 -3 1 -140 c2 -183 1 -175 24 -175 20 0 20 7 20
320 l0 320 -23 0 c-22 0 -22 -1 -22 -137 l0 -138 -177 -3 -176 -2 1 140 c2
139 2 140 -20 140 -15 0 -23 -6 -24 -17z"/>
</g>
</svg>
