<?xml version="1.0" encoding="utf-8"?>
<!-- Generator: Adobe Illustrator 21.1.0, SVG Export Plug-In . SVG Version: 6.00 Build 0)  -->
<svg version="1.1" id="Ñëîé_1" xmlns="http://www.w3.org/2000/svg" xmlns:xlink="http://www.w3.org/1999/xlink" x="0px" y="0px"
	 viewBox="0 0 708.7 708.7" style="enable-background:new 0 0 708.7 708.7;" xml:space="preserve">
<g>
	<path d="M21.2,310.4v-33.8h-6v-13.5h6v-1.6c0-5.2,2-12.1,6.4-16.1c4.3-3.9,10.1-5,14.3-5c3.2,0,5.6,0.3,7.9,0.8V255
		c-1.3-0.3-2.8-0.5-4.6-0.5c-3.8,0-6.1,2.6-6.1,6.1v2.5H48v13.5h-8.7v33.8H21.2z"/>
	<path d="M100.2,298.6c0,5,0.3,9.6,0.8,11.7H84.6l-1-4h-0.4c-3.5,3.8-8.5,5.2-13.8,5.2c-10.4,0-16.5-7.2-16.5-14.9
		c0-12.7,11.3-18.6,29.2-18.6v-0.3c0-1.7-1.2-3.8-8.3-3.8c-5.3,0-11.2,2-14.3,3.7l-3.2-11.3c3.1-1.6,10.1-4.4,20.7-4.4
		c16.2,0,23.2,8.2,23.2,20.9V298.6z M82.7,289c-8,0-11.8,2-11.8,5.9c0,2.7,1.8,4.2,5.2,4.2c2.8,0,5.7-2.1,6.4-4.9
		c0.2-0.8,0.2-1.7,0.2-2.6V289z"/>
	<path d="M112.3,295.3c3,1.8,9.9,3.9,14.5,3.9c3.9,0,5.4-0.8,5.4-2.4c0-1.6-1-2.3-6.4-3.7c-11.1-2.9-15.4-8.7-15.3-14.7
		c0-9.6,8.7-16.4,21.7-16.4c6.4,0,12.3,1.4,15.4,2.9l-2.9,12.1c-2.4-1.2-7.5-2.9-11.7-2.9c-3,0-4.9,0.6-4.9,2.5
		c0,1.5,1.6,2.5,7.7,4.1c9.9,2.7,14,7.4,14.1,14.9c0,8.7-7,16-22.9,16c-7.4,0-13.6-1.5-17.8-3.6L112.3,295.3z"/>
	<path d="M158.7,241.5h18.2v26.5h0.2c1.7-2,3.8-3.6,6.1-4.5c2.2-1.1,4.8-1.6,7.4-1.6c11,0,18,7.3,18,21.2v27.3h-18.2v-24.6
		c0-6.2-2.2-9.4-6.9-9.4c-3.7,0-5.4,2.3-6.2,3.9c-0.4,0.8-0.4,1.8-0.4,2.6v27.5h-18.2V241.5z"/>
	<path d="M229,258.2c-5.8,0-9.2-3.7-9.2-8.4c0-4.7,3.5-8.4,9.3-8.4c5.9,0,9.2,3.7,9.3,8.4C238.5,254.5,235,258.2,229,258.2
		L229,258.2z M220,310.4v-47.3h18.2v47.3H220z"/>
	<path d="M274.1,311.5c-14.7,0-27.1-8.8-27.1-24.4c0-14.4,10.1-25.2,28.3-25.2c15.7,0,26.5,10,26.5,24.2
		C301.8,302.3,289.4,311.5,274.1,311.5L274.1,311.5z M274.6,298.9c5.2,0,8.3-4.3,8.3-12.2c0-6.6-2.5-12.2-8.3-12.2
		c-6.3,0-8.7,6.1-8.7,12.2C265.9,293.4,268.6,298.9,274.6,298.9L274.6,298.9z"/>
	<path d="M310.6,279.5c0-6.7-0.2-12.2-0.4-16.4h15.7l0.8,6.2h0.4c1.4-2,6.1-7.4,15-7.4c11.3,0,18.4,7.3,18.4,21.2v27.3h-18.2v-24.6
		c0-6.2-2.2-9.4-6.7-9.4c-3.9,0-5.6,2.8-6.3,4.6c-0.4,0.9-0.4,2.1-0.4,3.2v26.2h-18.2V279.5z"/>
</g>
<g>
	<path d="M56.4,385.5c3.7,2.5,8.7,4.3,14.2,4.3c9.6,0,15.6-5.5,15.6-13.5c0-7.3-3.7-11.5-13.1-15.2c-10.5-3.7-16.7-9-16.7-17.9
		c0-9.5,7.9-16.4,18.8-16.4c6.1,0,10.7,1.6,12.9,3.1l-1.7,3.8c-1.7-1.3-5.9-3.1-11.4-3.1c-10.5,0-14,6.7-14,11.8
		c0,7.2,4.1,10.9,13.5,14.5c10.7,4.3,16.3,9.1,16.3,18.8c0,9.4-6.7,17.9-20.6,17.9c-5.6,0-12.1-1.9-15.5-4.4L56.4,385.5z"/>
	<path d="M127.8,327.9v28.5h35.8v-28.5h4.5v64.8h-4.5v-32.4h-35.8v32.4h-4.5v-64.8H127.8z"/>
	<path d="M257,359.6c0,22.9-13.9,34.1-28.9,34.1c-16,0-28.3-12.6-28.3-32.8c0-21.2,12.8-34.1,29-34.1
		C245.2,326.9,257,339.5,257,359.6z M204.5,360.8c0,14.6,8.5,29.1,23.8,29.1s23.9-13.9,23.9-30c0-13.7-7.5-29.2-23.7-29.2
		C212.1,330.7,204.5,345.7,204.5,360.8z"/>
	<path d="M288.7,328.7c3.7-0.8,8.4-1.2,13.8-1.2c7.7,0,13.6,1.9,17.1,5.5c3.1,3,5,7.2,5,12.7c0,5.6-1.6,9.7-4.5,12.9
		c-4.1,4.8-11.2,7.3-19,7.3c-2.9,0-5.6-0.1-7.9-0.8v27.7h-4.5V328.7z M293.2,361c2.3,0.7,5.1,1,8.3,1c11.5,0,18.6-5.7,18.6-16
		c0-10.2-7.4-14.7-17.7-14.7c-4.2,0-7.4,0.4-9.1,0.8V361z"/>
</g>
<path d="M419.3,232.6c-1.9,13.9-9.4,166,0.2,177.4c2-8.9,6.2-142.7,16.7-136.2c10.5,6.6,1.7-43-2.6-46.2
	C429.3,224.5,421.9,213.9,419.3,232.6z"/>
<path d="M539.9,232c4.3,12,24,66.5,26.2,79.4c2.1,12.8-55.6,33.5-54.9,72.8c0.7,39.3-3,2.3-4.9-1.7c-1.9-4,13-43.9,34.3-57.9
	c21.4-14-10.6-78.6-19-62.4c-8.4,16.2-14.1-13.4-9-26.5C517.7,222.6,534.4,216.8,539.9,232z"/>
<path d="M465.1,196.1c0,0,12.3-10.7,10.5-24.6c-1.8-13.9-12.1-3.7-19,0c-6.9,3.7-11.3-13.2-11.3-37.3s5.9-32.2,19.8-42.4
	c13.8-10.2,38.7-5.8,45.3,11.7c6.6,17.5-16.2,53-16,65.4C494.6,181.2,485.6,189.3,465.1,196.1z"/>
<path d="M441.8,514.1c0.4,17.6,21.1,78,24.2,102.7c3.2,24.7,13.1,91.3,13.5,110.5c0.4,19.2,14.9-47.4,12.9-63.9
	c-2-16.5,3.9-129.3-10.9-148.4c-14.8-19.1,7.2-60.9-11-55.1C452.4,465.7,441.2,490.9,441.8,514.1z"/>
<path d="M487.4,792.4c8-13.7,6.5-26.9,6.1-45c-0.3-18.1,13.1-94.1,7.2-118.1c-5.9-24,4.1-61.5,11.5-95c7.4-33.5,6.4-86.1-15.5-99
	c-21.8-12.9-32.8,61.6-25.6,101.2c7.2,39.6,23.1,77.3,12.3,95.6c-12.9,21.8-6.9,42.5-2.9,110.8C473.5,788.7,473.6,815.9,487.4,792.4
	z"/>
<path d="M478.7,326.3c0,0-37.8-37.3-52.2-68c-14.3-30.7,17-72.7,48.9-32.6c16.3-26.1,51.5-21.4,56.1,5.6
	C536.1,258.3,502.2,316.1,478.7,326.3z"/>
<path d="M407.9,360.3c1.7-1.7,3.7-3,5.7-4.1c3.8-2.1,7.8-3.9,11.8-5.6c5.5-2.2,11.1-3.8,16.7-5.4c6.6-1.9,13.4-3.4,20.1-4.7
	c8.4-1.6,16.9-2.4,25.4-3c9-0.6,17.9-0.6,26.9-0.5c8.1,0,16.2,0.9,24.2,2.5c3.1,0.7,6.1,1.6,9.1,2.7c4.3,1.7,11.7,1.5,13.5,6.5
	c0.5,2,0.2,4-0.3,6c-0.9,2.8-3,4.8-5.2,6.6c-3,2.4-6.3,4.2-9.7,5.9c-4.4,2.1-9.1,3.6-13.7,4.9c-5.5,1.6-11.2,2.7-16.8,3.6
	c-6.4,1.1-12.8,1.8-19.3,2.4c-6.8,0.6-13.7,1-20.5,1.5c-7.1,0.4-14.2,1.1-21.2,1.7c-6.8,0.6-13.7,0.9-20.5,0.8
	c-4.7-0.2-9.4-0.8-13.8-2.7c-1.7-1.3-3.8-2.3-5.2-3.9c-0.3-0.3,4.8-4.4,5.3-4.7c3.5-2,7.3-3.5,11.1-4.9c5.2-1.8,10.6-2.8,16-3.8
	c6.6-1,13.4-1.5,20.1-1.9c7.4-0.4,14.8-0.5,22.2-0.4c7.3,0.1,14.6,0.4,21.9,1c6.9,0.5,13.8,1.3,20.6,2.3c6,0.8,12,1.9,17.9,3.3
	c8.7,2.6,17.9,4.8,25.4,10.1c2.3,1.7,4,3.9,5.1,6.6c1.3,2.5,1.3,5.3,1.1,8.1c-0.3,3.2-1.5,6-2.9,8.8c-1.9,3.3-4.5,6.1-7.2,8.8
	c-3.6,3.5-7.8,6.3-12.1,8.9c-5.7,3.4-11.8,6.1-17.9,8.5c-7.7,2.8-15.6,4.9-23.6,6.4c-8.6,1.8-17.5,2.9-26.3,3.8
	c-8.8,0.8-17.8,1.2-26.7,1.4c-8.6,0.2-17.1-0.1-25.6-0.4c-7.7-0.2-15.3-0.8-23.1-1.4c-6.9-0.5-13.7-1.6-20.3-3.4
	c-6.7-3.1-18.3-2.7-20.8-10.3c-0.7-2.7-0.3-5.3,0.2-7.9c1-3.5,3.2-6.3,5.6-8.9c3.1-3.1,6.7-5.5,10.4-7.8c4.3-2.4,8.9-4.2,13.5-5.9
	c5.2-1.9,10.5-3.4,15.9-4.7c6.2-1.4,12.4-2.5,18.6-3.4c7.1-1,14.4-1.3,21.5-1.5c7.9-0.1,15.9,0.2,23.8,0.7c8,0.6,15.9,1.5,23.8,2.4
	c7.3,0.9,14.6,1.9,21.9,3.2c6.6,1.2,13.2,2.9,19.7,4.8c11.4,3.1,22.4,7.8,33.4,12.2c4.1,1.8,8,4,11.7,6.5c3,2,5.5,4.7,7.2,7.9
	c1.8,3.1,2.3,6.6,2.5,10c0.2,4.1-0.8,8.1-2,12c-1.6,4.6-3.9,8.8-6.6,12.8c-3.3,4.8-7.4,8.7-11.8,12.4c-5.2,4.3-10.9,8.1-16.8,11.6
	c-7.2,4.3-15,7.5-22.9,10.4c-9,3.2-18.2,5.3-27.4,7.2c-9.8,1.9-19.7,3.1-29.7,4c-10,0.8-20,0.9-30,0.7c-9.3-0.3-18.5-1-27.7-2
	c-8-0.9-15.9-2.3-23.7-3.9c-6.6-1.4-13.1-3.2-19.5-5.4c-10.2-4-21.3-6.6-29.5-14c-2.8-2.5-4.4-5.7-5.6-9.1c-1-3.6-0.7-7.3-0.1-10.8
	c0.9-4.3,3.3-7.9,5.9-11.4c3.3-3.9,7.4-7.1,11.6-9.9c5.2-3.2,10.9-5.6,16.6-7.9c6.5-2.5,13-4.5,19.7-6.3c7.4-2,15-3,22.5-4
	c7.8-0.9,15.6-1.3,23.5-1.7c8-0.4,16-0.3,23.9-0.1c7.9,0.2,15.7,0.8,23.5,1.4c7.9,0.7,15.8,1.8,23.6,3.1c7.9,1.4,15.8,3.2,23.6,5.3
	c7.3,1.9,14.4,4.3,21.5,6.7c12.7,4.7,25.4,9.3,37.2,15.7c4.5,2.5,8.7,5.4,12.6,8.7c3.4,3.1,5.5,7.1,7.2,11.2c1.7,4.4,2,9.1,2,13.8
	c0,5-1.3,9.9-2.8,14.8c-1.8,5.4-4.5,10.6-7.4,15.6c-3.4,5.9-7.5,11.3-12.1,16.5c-5.3,6.2-11.6,11.2-18.4,15.7
	c-7.7,5-15.9,8.8-24.3,12.4c-8.6,3.6-17.4,6.7-26.3,9.5c-8.8,2.7-17.8,4.6-26.8,6.4c-9.1,1.7-18.2,2.6-27.3,3.2
	c-9,0.6-18,0.6-27,0.5c-8.3-0.1-16.7-0.6-25-1.4c-7.8-0.8-15.6-2.1-23.3-3.5c-6.9-1.2-13.6-2.7-20.4-4.5c-11.9-3.5-23.3-8.4-34.8-13
	c-4.4-1.8-8.6-4-12.7-6.4c-3.7-2.1-6.8-4.9-9.5-8c-2.5-2.9-3.7-6.4-4.5-10.1c-0.7-4-0.3-8,0.7-12c1.1-4.5,3.6-8.5,6.3-12.2
	c3.2-4.1,7.2-7.5,11.4-10.6c4.6-3.5,9.7-6.2,14.9-8.9c5.6-2.9,11.5-5.1,17.4-7.3c6.2-2.2,12.5-3.9,18.8-5.6c6.6-1.8,13.3-3.1,20-4.4
	c7.1-1.2,14.4-1.9,21.6-2.5c7.4-0.6,14.9-0.7,22.4-0.6c7.5,0.2,15,0.7,22.5,1.4c7.4,0.7,14.7,1.7,22,2.7c7.4,1.1,14.6,2.5,21.9,4
	c6.8,1.5,13.6,3.1,20.3,5c6.2,1.6,12.3,3.7,18.3,5.8c11.8,4.2,23.4,8.7,34.4,14.6c4.6,2.5,9,5.3,13.3,8.2c3.7,2.7,7.1,5.7,10.4,8.9
	c3,3,5.5,6.3,7.4,10.1c1.7,3.5,2.3,7.3,2.7,11.2c0.3,4.3-0.3,8.5-1.4,12.8c-1.3,4.6-3.4,8.8-5.8,13c-2.6,4.6-5.8,8.8-9.2,12.8
	c-3.9,4.3-8,8.3-12.4,12.1c-4.7,4-9.5,7.8-14.4,11.4c-5.3,4.1-11.3,7.3-17.2,10.6c-6.5,3.3-13.3,6.1-20.2,8.6
	c-7.4,2.6-14.9,4.5-22.5,6.2c-7.9,1.7-15.9,2.9-23.9,4c-8.1,1-16.2,1.6-24.3,2.1c-8.6,0.5-17.1,0-25.7-0.7
	c-8.3-0.7-16.6-1.6-24.9-2.9c-7.5-1.2-15-2.9-22.4-4.8c-6.5-1.6-12.9-3.7-19.3-5.9c-11.2-3.8-22.2-8.1-32.5-13.8
	c-3.9-2.3-7.7-4.8-11.4-7.6c-3.1-2.4-6-5.1-8.6-8c-2.3-2.6-4.3-5.5-5.9-8.5c-1.3-2.8-2.3-5.6-2.8-8.4c-0.6-2.6-0.9-5.2-0.9-7.9
	c0.2-2.5,0.7-5,1.7-7.4c1.1-2.5,2.8-4.7,4.7-6.7c2.1-2.4,4.7-4.1,7.5-5.7c2.2-1.3,4.5-2.1,6.9-2.9l13.4,6.9l0,0
	c-3.1,0.2-6.3,0.4-9.3,1.3c-3.4,1-6.7,2.2-9.6,4.3c-2.2,1.7-4.3,3.5-5.7,5.9c-1.1,2.2-1.8,4.5-1.5,7c0.3,2.8,0.9,5.4,2,8
	c1.4,3,2.8,6,4.6,8.7c2.2,3.1,4.7,6.2,7.5,8.8c3.4,3,7,5.8,10.8,8.2c4.5,2.8,9,5.6,13.7,7.9c2.6,1.3,5.2,2.6,7.9,3.7
	c0.9,0.4,3.6,1.5,2.7,1.1c-31.6-12.1-17.3-6.7-12.4-4.8c5.5,1.8,11.1,3.5,16.8,4.7c6.5,1.4,13.1,2.7,19.7,3.6c7.5,1,15,1.6,22.5,1.8
	c8.5,0.3,17.1,0.8,25.6,0.9c8.4,0,16.7-0.4,25-1.5c8-0.9,16.1-2.1,24.1-3.6c7.9-1.5,15.8-3.2,23.4-5.4c7.3-2.2,14.6-4.5,21.6-7.5
	c6.6-2.8,12.8-6,19-9.4c5.5-3.2,10.9-6.6,15.8-10.6c4.7-3.7,9.3-7.3,13.7-11.3c3.9-3.6,7.8-7.3,11.1-11.6c2.8-3.7,5.5-7.5,7.1-11.9
	c1.4-3.7,2.9-7.6,2.9-11.6c-0.2-4-1.5-7.6-3.9-10.9c-2.7-3.7-5.6-7.2-9.1-10.1c-3.9-3.4-8.1-6.4-12.5-9.2c-4.9-3-10-5.9-15.2-8.5
	c-2.8-1.4-5.5-2.7-8.3-3.9c-0.9-0.4-3.7-1.6-2.8-1.2c6.9,2.6,22.5,8.8,12.8,4.9c-5.6-2.1-11.3-4-17.1-5.4c-6.2-1.6-12.4-3-18.6-4.2
	c-6.9-1.3-13.8-2.5-20.8-3.5c-7.3-1.1-14.6-2.1-21.9-2.8c-7.4-0.7-14.7-1.2-22.1-1.4c-7.5-0.2-15-0.2-22.4,0.3
	c-7.4,0.5-14.8,1.1-22.2,2c-7.1,0.9-14.2,2.1-21.2,3.6c-6.6,1.4-13.1,3-19.5,5.1c-6.2,2-12.3,4.1-18.3,6.6
	c-5.6,2.3-11.2,4.9-16.6,7.8c-4.6,2.7-9.2,5.6-13.2,9.2c-3.4,3.1-6.4,6.6-8.4,10.7c-1.5,3.5-2.7,7-1.8,10.8c1.1,3.9,3.4,7.1,6.4,9.9
	c3.5,3.2,7.4,6,11.7,8.1c5,2.5,10.1,4.9,15.3,6.8c-30.5-11.9-8.7-3.1-1.3-1.2c5.9,1.5,12,2.6,18,3.4c7,1,13.9,1.8,20.9,2.4
	c7.8,0.6,15.5,0.9,23.2,0.7c8.4-0.2,16.8-0.5,25.2-1.1c9-0.7,17.9-1.7,26.8-3.1c8.9-1.5,17.8-3.4,26.4-6.2
	c8.8-2.7,17.4-5.7,25.9-9.3c8.6-3.6,17.2-7.2,25.5-11.5c7.7-4,15.4-7.9,22.4-13.1c5.6-4.5,11-9.2,15.8-14.4c3.8-4.3,7.5-8.8,10.3-14
	c2.2-4.2,4.1-8.7,4.5-13.5c0.2-4.5-0.1-8.9-2-13c-2.1-4.6-5.4-8.2-9.6-11c-4.9-3.4-10.1-6.4-15.5-9c-3-1.4-6-2.8-9.1-4.1
	c-1-0.5-4.3-1.7-3.2-1.3c35.2,13.5,20.1,7.8,14.3,5.6c-6.4-2.2-12.8-4.2-19.4-5.8c-7.3-1.7-14.7-3.4-22.2-4.7
	c-7.9-1.4-15.9-2.6-23.9-3.5c-7.8-0.8-15.6-1.4-23.5-1.6c-7.9-0.2-15.7-0.1-23.6,0.1c-7.9,0.3-15.8,0.6-23.7,1.4
	c-7.9,0.9-15.7,1.8-23.5,3.2c-7.3,1.3-14.6,2.8-21.6,5c-6.4,1.9-12.9,3.9-19.3,6.3c-5.2,2-10.4,4.3-14.8,7.8
	c-3.4,2.7-6.5,5.7-8.7,9.6c-1.5,3.3-1.9,6.5,0,9.8c2.3,3.9,5.6,6.9,9.3,9.4c2.3,1.5,4.7,3,7.1,4.2c0.9,0.4,3.6,1.6,2.7,1.2
	c-4-1.5-21-8.1-12-4.7c5.4,1.8,10.9,3.2,16.6,4.1c6.6,1,13.2,1.8,19.9,2.1c8,0.3,15.9,0.4,23.9,0.2c9.4-0.2,18.7-0.7,28-1.4
	c10-0.9,20-1.9,29.9-3.5c9.7-1.5,19.4-3.4,28.9-6c9-2.4,17.9-5.2,26.7-8.1c7.3-2.6,14.6-5.3,21.5-9c5.3-3,10.4-6.3,14.9-10.4
	c3.5-3.4,6.8-6.9,9.2-11.2c1.9-3.3,3.7-6.8,4.3-10.6c0.2-3.6-0.8-6.7-3.1-9.4c-3-3.3-6.5-6-10.4-8.2c-4.6-2.6-9.4-4.9-14.4-6.9
	c29,11.3,8.5,2.9,1.4,1.6c-5.8-1.5-11.7-2.9-17.7-3.8c-6.6-1-13.2-1.8-19.8-2.4c-7.3-0.7-14.6-1.2-22-1.5c-8.1-0.5-16.1-0.9-24.1-1
	c-7.9-0.2-15.9-0.3-23.8,0.1c-7,0.3-14.1,0.8-21,1.8c-6.1,0.8-12.2,1.8-18.2,3.3c-5.1,1.4-10.2,2.8-15.1,4.9
	c-4.3,1.8-8.5,3.9-12.4,6.4c-3.2,2-6.3,4.1-8.8,6.9c-1.8,2.1-2.9,4.5-0.6,6.7c1.5,1.1,1.4,1.2,3.2,2.1c0.7,0.3,2.8,1.2,2.1,0.9
	c-19.4-7.2-11.8-4.1-7.4-3.3c4.9,0.6,9.8,0.6,14.8,0.7c6.8,0.1,13.6,0.1,20.4,0.1c7.7-0.2,15.4-0.4,23.1-0.8
	c8.6-0.5,17.1-0.8,25.7-1.7c8.9-0.9,17.8-1.9,26.6-3.3c8.8-1.5,17.4-3,26.1-4.9c7.7-1.7,15.3-3.5,22.8-5.8c5.8-1.8,11.5-3.7,17-6.2
	c3.8-1.8,7.4-3.9,10.4-6.9c2.1-2.1,4.2-4.5,4.8-7.5c0.4-2.8-0.3-5.3-1.7-7.6c-2.3-2.9-5-5.2-8.3-6.8c-4.5-2.2-14-6,7.1,2.4
	c0.6,0.2-1.2-0.4-1.8-0.6c-1.7-0.5-2.1-0.6-3.9-0.9c-4.9-0.8-9.9-1.3-14.8-1.7c-6.1-0.4-12.2-0.8-18.2-1.1
	c-6.9-0.3-13.7-0.6-20.6-0.5c-7.4,0.1-14.8,0.1-22.2,0.3c-7.4,0.2-14.8,0.4-22.2,0.7c-6.6,0.3-13.2,0.7-19.8,1.5
	c-5.1,0.6-10.2,1.5-15.3,2.6c-2.1,0.4-4.2,0.7-6.2,1.2c-0.5,0.1-1.1,0.2-1.6,0.5c-0.3,0.2-0.5,0.8-0.9,0.7c-2.2-0.3-4.4-1.1-6.6-1.7
	c-0.9-0.9,3-2.3,3.4-2.5c4.7-1.9,9.7-3.2,14.7-3.9c6.9-0.9,13.8-1.7,20.7-2c7.1-0.4,14.1-0.7,21.3-1.2c6.9-0.5,13.7-1,20.6-1.6
	c6.4-0.6,12.8-1.3,19.1-2.2c5.5-0.8,10.9-2,16.3-3.4c4.4-1.1,8.8-2.4,13.1-4c3-1.2,6-2.6,8.6-4.6c2.4-2.2,1.7-3.4-0.9-5.2
	c-1.2-0.6-5-2.3-3.8-1.7c16.8,6.6,10.6,3.3,5.6,3.5c-5.6,0.1-11.2,0.8-16.8,1.1c-8.2,0.6-16.3,1.2-24.4,1.7
	c-9.1,0.6-18.2,1.2-27.2,1.8c-8.3,0.6-16.6,1-24.8,2.1c-6.6,1-13.2,2.3-19.7,3.7c-5.6,1.1-11.1,2.3-16.7,3.2c-4,0.5-8,0.8-12,0.9
	L407.9,360.3L407.9,360.3z"/>
<path d="M511.7,46.6c-1.6,0.1-3.1,0.7-4.7,1.1c-3,1.1-6,2.1-9.1,2.9c-5.4,1.4-11,2.4-16.5,3.3c-7.5,1.1-15.1,2.1-22.5,3.2
	c-8.8,1.3-17.5,2.3-26.3,3.3c-8.9,1-17.8,2.3-26.6,3.8c-8.4,1.4-16.8,3.4-25,5.5c-7.8,2-15.4,4.3-23.1,6.7
	c-6.7,2.1-13.2,4.5-19.7,7.2c-5.6,2.3-11,5-16.4,7.8c-4.7,2.3-9.2,5-13.5,8c-3.5,2.3-6.6,5.2-9.3,8.4c-2.2,2.4-3.6,5.2-4.6,8.3
	c-0.7,2.8-0.2,5.3,1.2,7.7c1.8,2.9,4.7,4.6,7.6,6.3c1.8,0.9,3.7,1.8,5.6,2.5c0.7,0.3,2.6,1,1.9,0.8c-10.1-4-13.7-5.2-8.4-3.4
	c4,1.3,8.1,2.1,12.2,2.6c5.2,0.5,10.3,0.9,15.5,1.3c6.1,0.6,12.2,1,18.3,1.2c6.6,0.3,13.2,0.5,19.9,0.8c6.8,0.3,13.6,0.5,20.3,0.7
	c7,0,13.9,0.1,20.9,0c7.1,0,14.2-0.1,21.3-0.3c7.2-0.1,14.5-0.6,21.7-0.8c7.5-0.4,15.1-0.6,22.6-1c7.5-0.4,15-1,22.5-1.6
	c7.2-0.4,14.4-1,21.5-1.8c6.9-0.9,13.9-1.7,20.8-2.7c6.7-0.9,13.5-1.8,20.1-3.1c6-1.2,12.1-2.6,18-4.2c5.8-1.6,11.6-3.3,17.5-4.9
	c5.6-1.5,11.3-3.3,16.9-5c5.3-1.5,10.6-3.1,15.9-4.8c4.7-1.5,9.4-3.1,14.1-4.8c4-1.6,8-3.2,11.8-5.2c3-1.5,5.8-3.6,8.3-5.8
	c2-1.7,3.6-3.8,5-6c1.1-1.9,1.3-4.1,0.9-6.2c-0.6-2.6-2.2-4.8-4-6.8c-2.4-2.6-5.3-4.7-8.3-6.7c-3.9-2.6-8-4.7-12.2-6.8
	c-4.6-2.3-9.3-4.3-14.1-6.2c27.6,10.1,7.4,3.2,0.8,1.3c-5.3-1.5-10.7-2.7-16.1-3.8c-6-1.3-12.1-2.2-18.2-3
	c-6.9-1.1-13.8-2.2-20.8-3.1c-6.8-1-13.7-1.7-20.6-2.3c-7-0.5-14-0.2-20.9,0.2c-8.1,0.5-16.3,1.2-24.4,1.7
	c-8.5,0.6-17.1,1.3-25.6,1.9c-7.9,0.4-15.9,1.1-23.8,1.8c-6.9,0.6-13.7,1.9-20.5,3.3c-6.3,1.3-12.7,2.8-18.9,4.3
	c-5.6,1.5-11,3-16.4,5.1c-4.8,1.8-9.4,4-14,6.2c-4,1.9-8,4.1-11.7,6.7c-3.2,2.1-6.1,4.3-8.8,6.9c-2.2,2-3.8,4.5-5.1,7.2
	c-1,2.3-1.1,4.8-0.6,7.3c0.4,2.4,1.7,4.5,3.2,6.4c1.9,2.2,4.3,3.8,6.9,5.1c1.7,0.8,3.4,1.5,5.2,2.1c0.6,0.2,2.4,0.9,1.8,0.7
	c-8.8-3.6-12.4-4.7-7.6-3.2c3.7,1.1,7.4,1.8,11.2,2.4c4.6,0.7,9.2,1.2,13.8,1.6c5.1,0.5,10.2,0.7,15.3,0.7
	c5.7-0.1,11.4-0.4,17.1-0.5c6.2-0.2,12.3-0.4,18.4-0.7c6.3-0.4,12.6-1.1,18.8-2c6.7-1,13.3-2.2,20-3.3c7-1.2,14-2.3,21-3.6
	c6.8-1.2,13.6-2.6,20.5-4c6.5-1.3,12.9-2.9,19.3-4.5c6-1.6,12-3.6,17.9-5.4c5.6-1.6,11-3.6,16.5-5.3c4.5-1.6,9-3.2,13.2-5.5
	c3-1.6,5.8-3.7,7.9-6.4c1.5-2.3,1.5-4.7,0.5-7.2c-1.4-3-4.1-5.2-6.7-7.1c-3.7-2.5-7.8-4.2-12-5.8c-7-2.6,1.3,0.4,9.3,3.7
	c0.7,0.3-1.4-0.5-2.1-0.7c-2.1-0.7-4.4-1.2-6.6-1.7c-4.8-1.1-9.6-1.7-14.5-2.2c-5.8-0.6-11.7-0.6-17.6-0.6
	c-6.7,0.1-13.3,0.4-19.9,0.8c-7,0.5-13.9,1.1-20.8,1.8c-6.7,0.6-13.5,1.3-20.3,2.1c-6.1,0.7-12.3,1.7-18.3,2.9
	c-5.9,1-11.6,2.6-17.3,4c-5.6,1.4-11.2,2.9-16.7,4.5c-4.9,1.5-9.8,2.9-14.6,4.7c-3.8,1.5-7.5,3.1-11,5.1c-2.4,1.4-4.6,3-6.1,5.4
	c-1,1.8-0.9,3.6-0.3,5.5c0.8,2.1,2.3,3.5,4.1,4.8c1.2,0.7,2.5,1.4,3.8,1.9c0.5,0.2,2.1,0.7,1.5,0.5c-7-2.9-9.8-3.5-6-2.6
	c3.1,0.7,6.3,0.9,9.4,1.1c3.9,0.3,7.7,0.3,11.6,0.2c4.2-0.1,8.3-0.5,12.4-1c4.2-0.6,8.4-1.3,12.6-2.1c4.2-0.7,8.4-1.7,12.5-2.6
	c4.2-1,8.2-2.3,12.3-3.6c4.3-1.2,8.4-2.9,12.5-4.3c4-1.4,8.1-2.8,12.1-4.2c3.3-1.1,6.5-2.6,9.6-4.2c2.2-1.1,4.2-2.4,5.9-4.2
	c1-1.1,2-2.3,2.1-3.9c0.1-1.2-0.5-2.2-1.2-3.1c-1-1-2.2-1.6-3.5-2.1c9.1,3.7,1.9,0.9-0.6,0.7c-1.7-0.1-3.5,0.1-5.2,0.2
	c-2.1,0.2-4.2,0.5-6.2,0.8c-2.2,0.3-4.4,0.7-6.5,1.2c-2,0.6-4.1,1.3-6.1,1.9l-0.9,0.4l-5-2.3l0,0c0.2-0.2,0.3-0.4,0.5-0.6
	c1.5-1.3,3.2-2.1,5.2-2.6c2.1-0.6,4.2-1,6.4-1.3c2.2-0.3,4.4-0.5,6.6-0.6c2.1-0.1,4.2,0.1,6.4,0.3c3.8,0.4,5.9,0.6,9.8,2.9
	c1.1,0.5,2.2,1.1,2.9,2.1c0.8,1.1,1.4,2.2,1.6,3.5c0.1,1.6,0.2,3.2-0.4,4.8c-0.8,2.1-1.9,3.9-3.3,5.6c-2,2.2-4.3,4.1-6.8,5.8
	c-3.3,2.1-6.8,3.7-10.4,5.2c-4,1.7-8.2,3.1-12.3,4.5c-4.3,1.2-8.5,2.4-12.9,3.5c-4.1,1-8.2,1.9-12.4,2.8c-4.3,0.8-8.5,1.6-12.9,2.1
	c-4.2,0.5-8.5,1-12.8,0.9c-4.2,0.1-8.4,0-12.5-0.5c-4-0.5-7.9-1-11.7-2.2c-5.3-1.7-10.9-3.1-15.3-6.7c-1.4-1.4-2.6-3-3.2-4.9
	c-0.7-2.1-0.9-4.2-0.5-6.4c0.6-2.6,1.6-5,3.3-7.1c2.3-2.6,4.8-4.9,7.7-6.9c3.7-2.4,7.7-4.7,11.9-6.3c5-2,10-3.8,15.1-5.4
	c5.7-1.6,11.4-3,17-4.3c5.8-1.2,11.6-2.3,17.5-3.5c6.2-1.1,12.4-2.2,18.7-3c6.9-0.9,13.8-1.6,20.7-1.9c7-0.4,14-0.6,21.1-0.4
	c6.6,0.2,13.2,0.8,19.8,1.6c5.8,1,11.6,2,17.3,3.5c9.3,2.5,18.5,5.7,27.3,9.8c3.1,1.4,6.3,3,8.8,5.5c1.9,2,3.5,4.2,4.2,7
	c0.6,2.7,0.7,5.4-0.1,8.1c-1,3.1-2.4,6-4.7,8.3c-3,2.9-6.2,5.4-9.9,7.4c-4.5,2.5-9.3,4.6-14,6.6c-5.5,2.4-11.2,4.3-16.9,6
	c-6,1.9-12.1,3.7-18.1,5.2c-6.5,1.7-13.1,3.2-19.7,4.5c-6.9,1.4-13.8,2.8-20.6,3.9c-7.1,1.1-14.1,2.1-21.3,2.8
	c-6.7,0.7-13.4,1.2-20.1,1.4c-6.3,0.3-12.5,0.5-18.8,0.6s-12.5,0.1-18.8-0.2c-5.6-0.2-11.3-0.6-16.9-1.4c-5.1-0.6-10.2-1.3-15.3-2.3
	c-4.6-1-9.1-2-13.5-3.5c-6.7-2.3-13.5-4.6-19.7-8.1c-2.1-1.4-4-3-5.4-5.1c-1.4-2.1-2.5-4.3-3.2-6.7c-0.4-2.6-0.4-5.3,0.1-8
	c0.7-2.9,1.9-5.6,3.5-8.2c1.9-2.9,4.1-5.7,6.6-8.2c3.1-2.8,6.2-5.6,9.9-7.9c4.1-2.6,8.2-5,12.6-7.1c4.8-2.2,9.6-4.4,14.6-6.1
	c5.6-2.1,11.2-4,17-5.5c6.3-1.6,12.7-3,19.2-4.2c6.9-1.3,13.8-2.4,20.7-3.5c8.1-1.1,16.2-1.9,24.3-2.6c8.7-0.7,17.4-1.1,26.1-1
	c8,0.1,16,0.4,24,1.1c6.9,0.7,13.8,1.3,20.7,2.2c6.9,0.9,13.9,1.9,20.8,3c7,1.3,13.9,2.7,20.8,4.4c6,1.4,12,2.9,17.9,4.7
	c10.7,3.2,21.1,6.8,31.3,11.3c4.2,1.8,8.4,3.7,12.4,6c3.1,1.8,6.2,3.8,8.9,6.2c2.1,1.9,4.2,3.8,5.6,6.4c1.2,2.1,2.1,4.2,2.2,6.6
	c0.1,2.3,0,4.5-0.7,6.7c-0.7,2.5-1.8,4.9-3.2,7c-1.8,2.6-3.8,5-6.2,7.1c-2.9,2.5-6,4.8-9.5,6.5c-4,2.1-8.2,4-12.3,5.8
	c-4.7,2-9.5,3.8-14.3,5.6c-5.4,1.9-10.7,3.7-16.1,5.4c-5.7,1.8-11.4,3.6-17.1,5.2c-5.8,1.6-11.6,3.2-17.4,4.7
	c-6.1,1.5-12.1,3.1-18.3,4.2c-6.9,1.2-13.7,2.1-20.7,2.9c-6.8,0.8-13.7,1.5-20.5,2.4c-7.3,0.7-14.6,1.5-21.9,1.9
	c-7.5,0.5-15.1,0.9-22.6,1c-7.5,0.2-15.1,0.3-22.6,0.4c-7.1,0.1-14.4,0.2-21.6,0.2c-7.2,0-14.4,0.1-21.5-0.3
	c-6.9-0.2-13.8-0.6-20.7-0.8c-6.9-0.3-13.7-0.6-20.6-1.1c-6.6-0.5-13.1-1.2-19.7-1.9c-6.1-0.8-12.3-1.7-18.4-2.9
	c-5-1-10.1-2.2-14.9-3.9c-7.5-2.7-15.1-5.1-22-9.3c-2.3-1.7-4.3-3.7-5.5-6.4c-1-2.7-1.6-5.5-1.5-8.4c0.2-3.3,1-6.6,2.3-9.6
	c1.8-3.6,4.1-6.9,6.7-10c3.3-3.5,7-6.7,10.8-9.6c4.7-3.2,9.4-6.2,14.3-9c5.5-3.1,11.2-6,16.9-8.8c6.7-3.1,13.5-5.9,20.5-8.2
	c7.8-2.4,15.7-4.8,23.7-6.4c8.5-1.8,17-3.5,25.6-4.6c9.1-1.3,18.3-2.3,27.4-2.8c8.8-0.5,17.5-1,26.3-1.2c7.6-0.2,15.2-0.3,22.8-0.1
	c5.4,0.1,10.7,0.4,16.1,0.7c2.9,0.2,5.7,0.4,8.6,0.8L511.7,46.6L511.7,46.6z"/>
</svg>
